<?xml version="1.0" encoding="utf-8"?>
<!-- Generator: Adobe Illustrator 21.0.0, SVG Export Plug-In . SVG Version: 6.00 Build 0)  -->
<svg version="1.1" id="Layer_1" xmlns="http://www.w3.org/2000/svg" xmlns:xlink="http://www.w3.org/1999/xlink" x="0px" y="0px"
	 viewBox="0 0 469.3 132.4" style="enable-background:new 0 0 469.3 132.4;" xml:space="preserve">
<style type="text/css">
	.st0{fill:#BA842D;}
	.st1{fill:#002F60;}
</style>
<g>
	<path class="st0" d="M292.9,46.2V35l-3.8,8.1h-1.9l-3.9-8.1v11.2h-2.5V29.5h2.5l4.9,10.4l4.8-10.4h2.5v16.7H292.9z"/>
	<path class="st0" d="M312.8,46.2l-1.1-3.4h-6.6l-1.1,3.4h-2.7l6.1-16.7h2l6.1,16.7H312.8z M308.5,33.3l-2.6,7.4h5.1L308.5,33.3z"/>
	<path class="st0" d="M331.4,46.2l-4.7-8.2l-2.8,3.4v4.9h-2.5V29.5h2.5v8.4l6.8-8.4h3.1l-5.4,6.5l6,10.1H331.4z"/>
	<path class="st0" d="M340.3,46.2V29.5H351v2.3h-8.1v4.9h6.9v2.2h-6.9v5h8.1v2.3H340.3z"/>
	<path class="st0" d="M377.4,46.2l-7.7-11.7v11.7h-2.5V29.5h2.3l7.7,11.7V29.5h2.5v16.7H377.4z"/>
	<path class="st0" d="M397.4,44.5c-1.1,1.1-2.6,1.8-4.4,1.8c-1.8,0-3.2-0.6-4.4-1.8c-1.6-1.6-1.6-3.5-1.6-6.7c0-3.2,0-5.1,1.6-6.7
		c1.1-1.1,2.6-1.8,4.4-1.8c1.8,0,3.3,0.6,4.4,1.8c1.6,1.6,1.6,3.5,1.6,6.7C399,41,399,42.9,397.4,44.5z M395.4,32.7
		c-0.6-0.6-1.5-1-2.5-1c-1,0-1.9,0.4-2.5,1c-0.8,0.9-1,1.8-1,5.2c0,3.4,0.2,4.3,1,5.2c0.6,0.6,1.5,1,2.5,1c1,0,1.9-0.4,2.5-1
		c0.8-0.9,1-1.8,1-5.2C396.4,34.5,396.3,33.5,395.4,32.7z"/>
	<path class="st0" d="M280.7,74.3V57.6h2.5V72h8v2.3H280.7z"/>
	<path class="st0" d="M297.7,74.3V57.6h2.5v16.7H297.7z"/>
	<path class="st0" d="M313.7,59.9v14.4h-2.5V59.9h-4.6v-2.3h11.7v2.3H313.7z"/>
	<path class="st0" d="M330.3,59.9v14.4h-2.5V59.9h-4.6v-2.3h11.7v2.3H330.3z"/>
	<path class="st0" d="M341.3,74.3V57.6h2.5V72h8v2.3H341.3z"/>
	<path class="st0" d="M358.3,74.3V57.6H369v2.3h-8.1v4.9h6.9V67h-6.9v5h8.1v2.3H358.3z"/>
	<path class="st0" d="M391.4,67.7h-3.8v6.6h-2.5V57.6h6.3c3.3,0,5.3,2.2,5.3,5.1C396.8,65.6,394.7,67.7,391.4,67.7z M391.3,59.9
		h-3.7v5.6h3.7c1.8,0,3-1,3-2.8C394.2,60.9,393,59.9,391.3,59.9z"/>
	<path class="st0" d="M403.3,74.3V57.6h2.5V72h8v2.3H403.3z"/>
	<path class="st0" d="M429.9,74.3l-1.1-3.3h-6.6l-1.1,3.3h-2.7l6.1-16.7h2l6.1,16.7H429.9z M425.5,61.4l-2.6,7.4h5.1L425.5,61.4z"/>
	<path class="st0" d="M448.7,74.3L441,62.6v11.7h-2.5V57.6h2.3l7.7,11.7V57.6h2.5v16.7H448.7z"/>
	<path class="st0" d="M463.3,74.4c-2.5,0-4.3-0.6-5.9-2.2l1.7-1.7c1.2,1.2,2.6,1.6,4.3,1.6c2.2,0,3.4-0.9,3.4-2.6
		c0-0.7-0.2-1.3-0.7-1.7c-0.4-0.4-0.8-0.6-1.8-0.7l-2-0.3c-1.4-0.2-2.4-0.7-3.2-1.3c-0.8-0.8-1.2-1.8-1.2-3.2c0-2.9,2.1-4.9,5.6-4.9
		c2.2,0,3.7,0.6,5.2,1.9l-1.6,1.6c-1-1-2.2-1.3-3.6-1.3c-2,0-3,1.1-3,2.6c0,0.6,0.2,1.1,0.6,1.5c0.4,0.4,1.1,0.7,1.9,0.8l1.9,0.3
		c1.5,0.2,2.4,0.6,3.1,1.2c0.9,0.8,1.4,2,1.4,3.4C469.3,72.6,466.8,74.4,463.3,74.4z"/>
	<path class="st0" d="M290,102.4v-7.3h-6.8v7.3h-2.5V85.7h2.5v7.1h6.8v-7.1h2.5v16.7H290z"/>
	<path class="st0" d="M300.4,102.4V85.7h10.7V88h-8.1v4.9h6.9v2.2h-6.9v5h8.1v2.3H300.4z"/>
	<path class="st0" d="M327.3,102.4l-3.5-7h-3.2v7H318V85.7h6.5c3.2,0,5.2,2,5.2,4.9c0,2.4-1.5,3.9-3.3,4.4l3.8,7.4H327.3z M324.3,88
		h-3.8v5.2h3.8c1.7,0,2.8-1,2.8-2.6C327.2,89,326,88,324.3,88z"/>
	<path class="st0" d="M336.9,102.4V85.7h10.7V88h-8.1v4.9h6.9v2.2h-6.9v5h8.1v2.3H336.9z"/>
</g>
<g>
	<path class="st1" d="M42.9,27.5C18,27.5,0,44.3,0,67.5c0,21,18.2,36.9,42.3,36.9c23.8,0,41.8-17.4,41.8-40.4
		C84.1,43.5,66,27.5,42.9,27.5 M70.5,67.7c0,14.9-8.1,30.9-25.8,30.9C27,98.6,13.6,83.7,13.6,64c0-12.3,7-30.7,26.4-30.7
		C58,33.3,70.5,47.4,70.5,67.7"/>
	<path class="st1" d="M165.6,98.8l-19.9-19.9c-4.2-4.2-7.5-7.3-11-10.2c8.3-3.4,13.6-10.5,13.6-18.8c0-13.5-11.9-21.6-31.8-21.6
		c-7.2,0-9.6,0.1-14,0.3l-0.3,0c0,0-4.6,0.2-4.6,0.2c-3.8,0.2-7.8,0.4-9.6,0.4h-1.5v1.5v2.1v1.5h1.5h2.5c5.8,0,7,1.3,7,7.6v47.7
		c0,6.8-1.8,7.9-7.6,7.9h-1.9h-1.5v1.5v2.2v1.5h1.5h32h1.5v-1.5v-2.2v-1.5H120h-2.6c-6,0-7.6-1.4-7.6-7V72.9
		c1.2,0.1,2.5,0.1,4.3,0.1c2.4,0,4-0.1,5.9-0.2l1.3-0.1c3,2,6.9,5.4,11.1,9.6l18.4,18.4c10.3,10.3,15.8,14.8,36.1,13.9l1.4-0.1v-1.4
		v-2v-1.4l-1.4-0.1C179.3,109.3,172.7,105.9,165.6,98.8 M109.8,33.4c1.3-0.1,2.6-0.1,4.2-0.1c14.3,0,20.7,5.3,20.7,17.2
		c0,11.7-6.3,17.4-19.4,17.4l-1.5,0c-1.4,0-2.6,0-4.1-0.1V33.4z"/>
	<path class="st1" d="M249.1,29.2h-26.6H221v1.5v2.1v1.4l1.4,0.1c8.2,0.4,9.7,1.3,9.7,11.8v26.4c0,19.1-13.2,23.1-24.3,23.1
		c-15.7,0-24.3-8.2-24.3-23V41.1c0-5.3,1.6-6.8,7.5-6.8h1h1.5v-1.5v-2.1v-1.5h-1.5h-29.1h-1.5v1.5v2.1v1.5l1.5,0
		c7.3,0.1,8.3,1,8.3,7v33.1c0,18.5,13.1,30,34.2,30c25.8,0,35-16.5,35-30.6V43.2c0-6.6,2.2-8.9,8.9-8.9l1.4,0v-1.5v-2.1v-1.5H249.1z
		"/>
</g>
<rect x="262.9" class="st0" width="2.5" height="132.4"/>
</svg>
